<?xml version="1.0" standalone="no"?>
<!DOCTYPE svg PUBLIC "-//W3C//DTD SVG 20010904//EN"
 "http://www.w3.org/TR/2001/REC-SVG-20010904/DTD/svg10.dtd">
<svg version="1.0" xmlns="http://www.w3.org/2000/svg"
 width="400.000000pt" height="400.000000pt" viewBox="0 0 400.000000 400.000000"
 preserveAspectRatio="xMidYMid meet">
<metadata>
Created by potrace 1.14, written by Peter Selinger 2001-2017
</metadata>
<g transform="translate(0.000000,400.000000) scale(0.100000,-0.100000)"
fill="#000000" stroke="none">
<path d="M0 2000 l0 -2000 2000 0 2000 0 0 2000 c0 1327 -3 2000 -10 2000 -11
0 -11 -58 -10 -2020 0 -668 -2 -1380 -6 -1582 l-7 -368 -754 0 c-414 0 -753 1
-753 3 0 2 11 41 25 88 40 138 34 189 -25 189 -24 0 -113 38 -121 52 -5 8 -28
6 -75 -7 -105 -27 -384 -33 -456 -10 -53 16 -56 16 -88 -4 -20 -12 -43 -18
-56 -15 -16 4 -24 -1 -33 -24 -10 -24 -8 -45 14 -133 14 -57 28 -112 31 -121
5 -17 -39 -18 -819 -18 l-824 0 -6 337 c-4 186 -7 1079 -7 1986 0 1091 -3
1647 -10 1647 -7 0 -10 -673 -10 -2000z m2110 -1930 c0 -27 -4 -50 -10 -50 -5
0 -10 23 -10 50 0 28 5 50 10 50 6 0 10 -22 10 -50z"/>
<path d="M1287 3963 c-12 -21 -28 -51 -36 -67 -9 -22 -15 -26 -20 -17 -6 9
-22 -7 -54 -55 -52 -78 -85 -119 -92 -112 -2 2 2 16 10 31 12 23 12 27 0 27
-18 0 -154 -167 -201 -247 -20 -35 -47 -72 -59 -81 -12 -9 -34 -38 -49 -65
-15 -26 -32 -45 -36 -42 -5 3 -11 1 -14 -3 -3 -5 -16 -7 -29 -5 -13 3 -39 0
-58 -5 l-34 -9 55 -9 c30 -5 53 -12 50 -15 -3 -3 0 -12 6 -20 24 -30 24 -66 0
-110 -38 -72 -45 -108 -48 -235 -2 -90 0 -125 11 -137 19 -23 47 -6 55 33 6
31 10 37 56 75 20 17 22 17 17 3 -4 -12 -2 -15 9 -11 14 5 14 1 0 -32 -9 -21
-16 -62 -16 -92 0 -73 58 -197 127 -273 103 -112 123 -145 123 -200 0 -38 -4
-50 -15 -50 -16 0 -19 -28 -9 -68 4 -14 12 -21 20 -18 9 4 24 -15 45 -57 46
-91 92 -142 165 -183 125 -70 265 -53 373 44 55 49 101 138 101 195 0 26 38
107 50 107 3 0 21 -30 40 -66 19 -36 53 -83 76 -104 51 -47 141 -82 216 -84
l57 -1 -21 -22 c-25 -27 -136 -85 -206 -108 -71 -23 -59 -31 15 -10 62 17 173
78 226 124 18 15 59 36 91 47 69 22 141 82 180 148 28 48 56 150 56 208 0 32
3 37 30 43 16 3 54 6 84 6 43 0 61 -4 78 -21 15 -14 17 -19 6 -15 -38 15 -55
-80 -32 -180 7 -33 14 -77 14 -97 0 -20 4 -39 9 -42 4 -3 6 -28 3 -56 -3 -33
-1 -50 7 -50 6 0 13 10 16 23 21 97 31 158 30 192 -1 54 -16 139 -25 145 -4 3
-10 16 -14 30 -6 21 -5 22 4 8 16 -26 27 -22 34 13 13 65 92 129 159 129 37 0
38 1 33 30 -3 17 -9 43 -12 59 l-5 29 -49 -13 -49 -13 -6 39 c-5 29 -2 45 13
66 31 45 34 62 42 199 4 71 13 141 20 153 8 16 11 56 8 125 -3 85 -8 109 -30
153 l-27 53 24 6 c14 3 25 8 25 11 0 13 -38 51 -45 45 -5 -4 -5 -1 -1 6 13 22
-24 54 -54 47 -19 -4 -31 0 -44 14 -10 11 -35 23 -57 26 -21 4 -39 11 -39 16
0 11 -4 12 54 -6 28 -8 53 -20 57 -26 3 -6 19 -9 35 -7 26 4 27 5 9 13 -11 4
-39 26 -62 47 -24 21 -52 38 -64 38 -18 0 -20 4 -15 28 14 55 18 129 8 136 -5
3 -20 -5 -33 -18 -13 -14 -42 -43 -64 -65 -22 -22 -40 -39 -41 -38 -1 1 -18
31 -37 67 -58 109 -98 180 -102 180 -2 0 7 -27 21 -60 13 -33 24 -65 23 -72 0
-7 -6 1 -12 19 -16 41 -76 140 -104 170 l-23 24 -245 -2 -245 -1 -1 -36 c0
-31 -2 -34 -10 -17 -7 15 -8 10 -4 -20 3 -29 2 -34 -5 -20 -5 11 -9 37 -9 58
-1 37 -1 37 -44 37 l-43 0 -22 -76 c-24 -82 -37 -90 -34 -21 3 64 6 81 17 89
6 4 -6 8 -27 8 -20 0 -39 -6 -41 -12 -4 -10 -6 -10 -6 0 -1 9 -29 12 -104 12
l-103 0 -24 -42 c-20 -36 -24 -39 -31 -22 -4 10 -8 29 -8 42 -1 33 -18 27 -44
-15z m168 -101 c-3 -18 -10 -30 -14 -27 -5 2 -12 -16 -16 -41 -3 -26 -10 -43
-15 -38 -8 8 16 140 37 204 7 22 8 19 11 -20 2 -24 1 -59 -3 -78z m105 114 c0
-3 -4 -8 -10 -11 -5 -3 -10 -1 -10 4 0 6 5 11 10 11 6 0 10 -2 10 -4z m90 -16
c0 -5 -4 -10 -10 -10 -5 0 -10 5 -10 10 0 6 5 10 10 10 6 0 10 -4 10 -10z
m-249 -283 c-10 -9 -11 -8 -5 6 3 10 9 15 12 12 3 -3 0 -11 -7 -18z m1374
-177 c3 -5 1 -10 -4 -10 -6 0 -11 5 -11 10 0 6 2 10 4 10 3 0 8 -4 11 -10z
m65 -5 c7 -8 8 -15 2 -15 -5 0 -15 7 -22 15 -7 8 -8 15 -2 15 5 0 15 -7 22
-15z m-70 -35 c13 -8 13 -10 -2 -10 -9 0 -20 5 -23 10 -8 13 5 13 25 0z m-470
-227 c47 -22 93 -49 102 -59 17 -19 53 -102 69 -160 11 -39 44 -78 59 -69 10
6 60 -86 60 -112 0 -6 6 -18 13 -25 20 -23 54 -91 61 -124 5 -23 2 -36 -9 -48
-9 -9 -14 -20 -11 -25 3 -5 -1 -12 -10 -15 -9 -3 -14 -12 -11 -20 4 -9 -8 -19
-36 -29 -88 -32 -83 -33 -113 27 -38 79 -112 152 -192 189 -60 28 -77 32 -157
32 -77 0 -98 -4 -146 -26 -127 -60 -197 -165 -206 -311 -5 -77 -7 -83 -27 -84
-18 -1 -28 11 -54 66 -59 127 -182 210 -311 210 -99 0 -198 -48 -246 -118 -13
-18 -25 -30 -28 -25 -18 32 -32 136 -32 243 0 117 2 129 28 182 32 66 49 78
142 106 106 30 327 80 378 85 9 1 17 5 17 9 0 4 9 8 19 8 11 0 23 5 26 10 9
15 75 47 115 55 19 4 67 23 105 42 l70 34 120 -4 c115 -4 124 -6 205 -44z
m416 -14 c10 -11 11 -27 6 -60 l-8 -44 -8 50 c-4 28 -9 61 -12 75 -2 14 -1 18
2 10 4 -8 13 -22 20 -31z m-1927 -85 c4 -14 -7 -32 -41 -66 -26 -26 -49 -44
-52 -40 -6 10 30 91 51 115 20 21 34 18 42 -9z m1718 -51 c-3 -10 -5 -4 -5 12
0 17 2 24 5 18 2 -7 2 -21 0 -30z m112 -7 c-1 -13 -17 -53 -19 -46 -1 3 -3 19
-6 37 -3 25 -1 31 11 27 8 -4 15 -11 14 -18z m-1702 -158 c-3 -8 -6 -5 -6 6
-1 11 2 17 5 13 3 -3 4 -12 1 -19z m-20 -102 c-3 -37 -17 -63 -17 -30 0 21 11
64 16 64 1 0 2 -15 1 -34z m1356 -109 c69 -32 129 -94 169 -175 30 -60 33 -75
33 -157 0 -82 -3 -98 -30 -150 -40 -78 -104 -127 -194 -149 -130 -32 -216 -12
-298 70 -43 43 -55 64 -74 125 -30 97 -30 184 -1 231 23 37 32 88 11 58 -9
-12 -9 -11 -4 5 4 11 10 28 12 38 3 9 10 17 15 17 5 0 6 -10 3 -22 -6 -21 -5
-20 12 3 10 15 29 36 43 48 19 16 20 19 6 14 -33 -11 -8 15 34 37 48 24 51 25
44 3 -5 -14 -2 -13 13 3 10 12 25 24 33 28 29 11 121 -3 173 -27z m-328 -66
c-3 -6 -11 -11 -17 -11 -6 0 -6 6 2 15 14 17 26 13 15 -4z m-488 -61 c8 0 11
-4 8 -10 -3 -6 1 -7 9 -4 21 8 98 -38 130 -78 47 -59 57 -76 81 -147 16 -47
21 -143 5 -106 -7 16 -9 13 -9 -16 -1 -50 -40 -83 -89 -75 -43 7 -85 46 -87
80 -1 32 3 33 15 2 5 -14 21 -32 35 -42 21 -14 30 -15 56 -4 32 14 53 51 44
80 -3 9 -16 27 -29 39 -22 21 -28 22 -61 11 -29 -9 -35 -16 -30 -31 4 -11 2
-19 -5 -19 -24 0 -4 44 29 61 32 17 36 17 63 1 15 -9 28 -21 28 -26 0 -5 3 -7
6 -4 20 20 -67 95 -90 78 -91 -72 -105 -98 -86 -156 27 -80 120 -110 187 -58
l33 25 0 -28 c0 -38 -41 -122 -76 -155 -68 -63 -195 -90 -274 -59 -44 18 -107
66 -121 93 -6 12 -19 60 -29 107 -10 47 -27 109 -37 136 -53 138 75 319 212
301 30 -4 35 -3 20 5 -16 7 -13 8 14 4 18 -3 40 -5 48 -5z"/>
<path d="M1880 3020 c-83 -19 -130 -36 -130 -46 0 -6 123 1 210 12 25 3 54 6
65 7 11 0 23 6 28 11 5 8 10 6 16 -3 5 -8 16 -11 24 -8 8 3 20 0 26 -6 13 -13
26 -3 16 12 -12 21 -78 41 -129 40 -28 0 -85 -9 -126 -19z"/>
<path d="M1460 2884 c-29 -10 -116 -47 -165 -71 -54 -27 -78 -53 -89 -96 -6
-27 -6 -27 12 -10 10 10 17 22 14 27 -3 5 1 6 8 1 7 -4 15 -3 19 2 3 6 40 27
81 48 41 21 92 53 113 71 36 33 37 37 7 28z"/>
<path d="M2049 2526 c-34 -24 -86 -92 -77 -101 2 -2 12 10 22 28 9 18 34 45
54 60 34 26 43 29 98 24 72 -5 106 -25 139 -81 27 -45 34 -42 10 4 -27 53 -80
84 -149 88 -52 3 -66 0 -97 -22z"/>
<path d="M2084 2471 c-66 -41 -69 -139 -7 -190 31 -26 39 -28 61 -18 l26 12
-25 5 c-36 7 -56 22 -63 48 -7 22 -7 22 18 -3 34 -34 81 -31 109 6 41 57 -15
131 -82 108 -27 -9 -30 -14 -25 -37 5 -21 4 -25 -6 -15 -17 16 -4 63 18 64 25
2 53 1 87 -3 40 -6 73 -67 56 -104 -6 -13 -6 -24 -1 -24 14 0 22 36 15 74 -15
77 -114 120 -181 77z"/>
<path d="M1246 2535 c-11 -8 -18 -17 -15 -19 2 -3 15 4 29 14 14 11 21 20 15
19 -5 0 -19 -6 -29 -14z"/>
<path d="M1255 2510 c-3 -5 -1 -10 4 -10 6 0 11 5 11 10 0 6 -2 10 -4 10 -3 0
-8 -4 -11 -10z"/>
<path d="M1410 2364 c-36 -31 -60 -74 -59 -106 0 -18 3 -15 12 12 24 71 61
102 131 111 l51 6 -52 2 c-42 1 -57 -4 -83 -25z"/>
<path d="M2866 2413 c-6 -14 -5 -15 5 -6 7 7 10 15 7 18 -3 3 -9 -2 -12 -12z"/>
<path d="M2807 2339 c-23 -32 -21 -39 8 -39 26 0 29 10 16 44 -7 18 -8 18 -24
-5z"/>
<path d="M2463 2149 c-2 -23 3 -25 10 -4 4 8 3 16 -1 19 -4 3 -9 -4 -9 -15z"/>
<path d="M1845 2000 c-3 -5 1 -10 9 -10 9 0 16 5 16 10 0 6 -4 10 -9 10 -6 0
-13 -4 -16 -10z"/>
<path d="M1678 1833 c18 -2 45 -2 60 0 15 2 0 4 -33 4 -33 0 -45 -2 -27 -4z"/>
<path d="M2158 1467 c-13 -5 -48 -7 -78 -5 -30 2 -57 -1 -60 -7 -7 -13 69 -18
148 -10 43 5 62 11 62 21 0 15 -33 16 -72 1z"/>
</g>
</svg>
